<svg xmlns="http://www.w3.org/2000/svg" width="400" height="400" viewBox="0 0 100 100">
  <g transform-origin="50 50">
    <polygon points="50,48 35,71 65,71" fill="black" stroke="white" stroke-width="1" opacity="1" />
    <polygon points="50,52 35,29 65,29" fill="black" stroke="white" stroke-width="1" opacity="1" />
   
    <path d="M 50 60 Q 41 64 37 70 Q 50 70 63 70 Q 59 64 50 60 Z" fill="white" stroke="white" stroke-width="2" opacity="1" />
    <path d="M 50 40 Q 41 38 37 30 Q 50 30 63 30 Q 59 38 50 40 Z" fill="white" stroke="white" stroke-width="2" opacity="1" />

    <polygon points="50,48 49,52.5 51,52.5" fill="black" stroke="black" stroke-width="2" opacity="1" />
    <polygon points="50,52 49,47.5 51,47.5" fill="black" stroke="black" stroke-width="2" opacity="1" />

      <circle cx="50" cy="52" r="1" fill="white">
    <!-- Animation moving the circle downward -->
    <animate 
      attributeName="cy" 
      from="44" 
      to="61" 
      dur="1.2s" 
      repeatCount="indefinite" 
      fill="freeze" />
  </circle>
        <circle cx="50" cy="52" r="1" fill="white">
    <!-- Animation moving the circle downward -->
    <animate 
      attributeName="cy" 
      from="48.5" 
      to="61.5" 
      dur="1.1s" 
      repeatCount="indefinite" 
      fill="freeze" />
  </circle>
        <circle cx="50" cy="52" r="1" fill="white">
    <!-- Animation moving the circle downward -->
    <animate 
      attributeName="cy" 
      from="50.5" 
      to="61.5" 
      dur="1s" 
      repeatCount="indefinite" 
      fill="freeze" />
  </circle>
  </g>
</svg>
